<?xml version="1.0" encoding="UTF-8" standalone="no"?>
<!DOCTYPE svg PUBLIC "-//W3C//DTD SVG 1.1//EN"
 "http://www.w3.org/Graphics/SVG/1.1/DTD/svg11.dtd">
<!-- Generated by graphviz version 2.48.0 (20210717.1556)
 -->
<!-- Title: family Pages: 1 -->
<svg width="656pt" height="337pt"
 viewBox="0.00 0.00 655.50 337.00" xmlns="http://www.w3.org/2000/svg" xmlns:xlink="http://www.w3.org/1999/xlink">
<g id="graph0" class="graph" transform="scale(1 1) rotate(0) translate(4 333)">
<title>family</title>
<polygon fill="white" stroke="transparent" points="-4,4 -4,-333 651.5,-333 651.5,4 -4,4"/>
<!-- f1 -->
<g id="node1" class="node">
<title>f1</title>
<polygon fill="none" stroke="black" points="310,-292.5 310,-328.5 484,-328.5 484,-292.5 310,-292.5"/>
<text text-anchor="middle" x="347" y="-306.8" font-family="Times New Roman,serif" font-size="14.00">GGP&#45;Dad</text>
<polyline fill="none" stroke="black" points="384,-292.5 384,-328.5 "/>
<text text-anchor="middle" x="394" y="-306.8" font-family="Times New Roman,serif" font-size="14.00"> </text>
<polyline fill="none" stroke="black" points="404,-292.5 404,-328.5 "/>
<text text-anchor="middle" x="444" y="-306.8" font-family="Times New Roman,serif" font-size="14.00">GGP&#45;Mom</text>
</g>
<!-- f2 -->
<g id="node2" class="node">
<title>f2</title>
<polygon fill="none" stroke="black" points="267.5,-219.5 267.5,-255.5 434.5,-255.5 434.5,-219.5 267.5,-219.5"/>
<text text-anchor="middle" x="302.5" y="-233.8" font-family="Times New Roman,serif" font-size="14.00">GP1&#45;Dad</text>
<polyline fill="none" stroke="black" points="337.5,-219.5 337.5,-255.5 "/>
<text text-anchor="middle" x="347.5" y="-233.8" font-family="Times New Roman,serif" font-size="14.00"> </text>
<polyline fill="none" stroke="black" points="357.5,-219.5 357.5,-255.5 "/>
<text text-anchor="middle" x="396" y="-233.8" font-family="Times New Roman,serif" font-size="14.00">GP1&#45;Mom</text>
</g>
<!-- f1&#45;&gt;f2 -->
<g id="edge1" class="edge">
<title>f1:u&#45;&gt;f2:h</title>
<path fill="none" stroke="black" d="M394,-292C394,-252.21 318.44,-291.03 304.27,-265.98"/>
<polygon fill="black" stroke="black" points="307.63,-264.97 302,-256 300.81,-266.53 307.63,-264.97"/>
</g>
<!-- f6 -->
<g id="node7" class="node">
<title>f6</title>
<polygon fill="none" stroke="black" points="452.5,-219.5 452.5,-255.5 619.5,-255.5 619.5,-219.5 452.5,-219.5"/>
<text text-anchor="middle" x="487.5" y="-233.8" font-family="Times New Roman,serif" font-size="14.00">GP2&#45;Dad</text>
<polyline fill="none" stroke="black" points="522.5,-219.5 522.5,-255.5 "/>
<text text-anchor="middle" x="532.5" y="-233.8" font-family="Times New Roman,serif" font-size="14.00"> </text>
<polyline fill="none" stroke="black" points="542.5,-219.5 542.5,-255.5 "/>
<text text-anchor="middle" x="581" y="-233.8" font-family="Times New Roman,serif" font-size="14.00">GP2&#45;Mom</text>
</g>
<!-- f1&#45;&gt;f6 -->
<g id="edge11" class="edge">
<title>f1:u&#45;&gt;f6:h</title>
<path fill="none" stroke="black" d="M394,-292C394,-264.62 427.34,-277.73 444,-256 446.17,-253.17 446.29,-249.58 446.24,-246.32"/>
<polygon fill="black" stroke="black" points="449.33,-247.96 451,-237.5 443.17,-244.64 449.33,-247.96"/>
</g>
<!-- f3 -->
<g id="node3" class="node">
<title>f3</title>
<polygon fill="none" stroke="black" points="12.5,-146.5 12.5,-182.5 157.5,-182.5 157.5,-146.5 12.5,-146.5"/>
<text text-anchor="middle" x="42" y="-160.8" font-family="Times New Roman,serif" font-size="14.00">P1&#45;Dad</text>
<polyline fill="none" stroke="black" points="71.5,-146.5 71.5,-182.5 "/>
<text text-anchor="middle" x="81.5" y="-160.8" font-family="Times New Roman,serif" font-size="14.00"> </text>
<polyline fill="none" stroke="black" points="91.5,-146.5 91.5,-182.5 "/>
<text text-anchor="middle" x="124.5" y="-160.8" font-family="Times New Roman,serif" font-size="14.00">P1&#45;Mom</text>
</g>
<!-- f2&#45;&gt;f3 -->
<g id="edge2" class="edge">
<title>f2:u&#45;&gt;f3:h</title>
<path fill="none" stroke="black" d="M347,-219C347,-154.48 74.45,-240.76 44.64,-192.74"/>
<polygon fill="black" stroke="black" points="47.99,-191.74 42,-183 41.24,-193.57 47.99,-191.74"/>
</g>
<!-- f4 -->
<g id="node4" class="node">
<title>f4</title>
<polygon fill="none" stroke="black" points="175.5,-146.5 175.5,-182.5 320.5,-182.5 320.5,-146.5 175.5,-146.5"/>
<text text-anchor="middle" x="205" y="-160.8" font-family="Times New Roman,serif" font-size="14.00">P2&#45;Dad</text>
<polyline fill="none" stroke="black" points="234.5,-146.5 234.5,-182.5 "/>
<text text-anchor="middle" x="244.5" y="-160.8" font-family="Times New Roman,serif" font-size="14.00"> </text>
<polyline fill="none" stroke="black" points="254.5,-146.5 254.5,-182.5 "/>
<text text-anchor="middle" x="287.5" y="-160.8" font-family="Times New Roman,serif" font-size="14.00">P2&#45;Mom</text>
</g>
<!-- f2&#45;&gt;f4 -->
<g id="edge5" class="edge">
<title>f2:u&#45;&gt;f4:h</title>
<path fill="none" stroke="black" d="M347,-219C347,-157.83 221.67,-237.28 206.5,-193.14"/>
<polygon fill="black" stroke="black" points="209.92,-192.38 205,-183 203,-193.4 209.92,-192.38"/>
</g>
<!-- f12 -->
<g id="node12" class="node">
<title>f12</title>
<polygon fill="none" stroke="black" points="339,-146.5 339,-182.5 393,-182.5 393,-146.5 339,-146.5"/>
<text text-anchor="middle" x="366" y="-160.8" font-family="Times New Roman,serif" font-size="14.00">T2</text>
</g>
<!-- f2&#45;&gt;f12 -->
<g id="edge9" class="edge">
<title>f2:u&#45;&gt;f12:i</title>
<path fill="none" stroke="black" d="M347,-219C347,-209.93 349.38,-200.45 352.45,-191.99"/>
<polygon fill="black" stroke="black" points="355.74,-193.2 356.28,-182.62 349.26,-190.56 355.74,-193.2"/>
</g>
<!-- i13 -->
<g id="node13" class="node">
<title>i13</title>
<polygon fill="none" stroke="black" points="411,-146.5 411,-182.5 465,-182.5 465,-146.5 411,-146.5"/>
<text text-anchor="middle" x="438" y="-160.8" font-family="Times New Roman,serif" font-size="14.00">E</text>
</g>
<!-- f2&#45;&gt;i13 -->
<g id="edge10" class="edge">
<title>f2:u&#45;&gt;i13:i</title>
<path fill="none" stroke="black" d="M347,-219C347,-189.81 376.04,-197.83 402.41,-187.25"/>
<polygon fill="black" stroke="black" points="404.22,-190.26 411.58,-182.64 401.07,-184 404.22,-190.26"/>
</g>
<!-- i8 -->
<g id="node9" class="node">
<title>i8</title>
<polygon fill="none" stroke="black" points="0,-73.5 0,-109.5 54,-109.5 54,-73.5 0,-73.5"/>
<text text-anchor="middle" x="27" y="-87.8" font-family="Times New Roman,serif" font-size="14.00">T1</text>
</g>
<!-- f3&#45;&gt;i8 -->
<g id="edge3" class="edge">
<title>f3:u&#45;&gt;i8:i</title>
<path fill="none" stroke="black" d="M81,-146C81,-138.46 70.44,-126.93 58.66,-116.42"/>
<polygon fill="black" stroke="black" points="60.71,-113.56 50.84,-109.71 56.15,-118.87 60.71,-113.56"/>
</g>
<!-- i9 -->
<g id="node10" class="node">
<title>i9</title>
<polygon fill="none" stroke="black" points="72,-73.5 72,-109.5 126,-109.5 126,-73.5 72,-73.5"/>
<text text-anchor="middle" x="99" y="-87.8" font-family="Times New Roman,serif" font-size="14.00">A</text>
</g>
<!-- f3&#45;&gt;i9 -->
<g id="edge4" class="edge">
<title>f3:u&#45;&gt;i9:i</title>
<path fill="none" stroke="black" d="M81,-146C81,-136.98 83.25,-127.52 86.16,-119.06"/>
<polygon fill="black" stroke="black" points="89.45,-120.27 89.79,-109.68 82.92,-117.74 89.45,-120.27"/>
</g>
<!-- i10 -->
<g id="node5" class="node">
<title>i10</title>
<polygon fill="none" stroke="black" points="178,-73.5 178,-109.5 232,-109.5 232,-73.5 178,-73.5"/>
<text text-anchor="middle" x="205" y="-87.8" font-family="Times New Roman,serif" font-size="14.00">B</text>
</g>
<!-- f4&#45;&gt;i10 -->
<g id="edge6" class="edge">
<title>f4:u&#45;&gt;i10:i</title>
<path fill="none" stroke="black" d="M244,-146C244,-135.7 239.34,-126.01 233.24,-117.74"/>
<polygon fill="black" stroke="black" points="235.86,-115.42 226.78,-109.97 230.48,-119.9 235.86,-115.42"/>
</g>
<!-- f5 -->
<g id="node6" class="node">
<title>f5</title>
<polygon fill="none" stroke="black" points="250,-73.5 250,-109.5 304,-109.5 304,-73.5 250,-73.5"/>
<text text-anchor="middle" x="277" y="-87.8" font-family="Times New Roman,serif" font-size="14.00">C</text>
</g>
<!-- f4&#45;&gt;f5 -->
<g id="edge7" class="edge">
<title>f4:u&#45;&gt;f5:i</title>
<path fill="none" stroke="black" d="M244,-146C244,-135.98 248.13,-126.24 253.46,-117.82"/>
<polygon fill="black" stroke="black" points="256.39,-119.75 259.34,-109.57 250.69,-115.69 256.39,-119.75"/>
</g>
<!-- i11 -->
<g id="node11" class="node">
<title>i11</title>
<polygon fill="none" stroke="black" points="250,-0.5 250,-36.5 304,-36.5 304,-0.5 250,-0.5"/>
<text text-anchor="middle" x="277" y="-14.8" font-family="Times New Roman,serif" font-size="14.00">D</text>
</g>
<!-- f5&#45;&gt;i11 -->
<g id="edge8" class="edge">
<title>f5:i&#45;&gt;i11:i</title>
<path fill="none" stroke="black" d="M277,-73.46C277,-65.38 277,-55.68 277,-46.68"/>
<polygon fill="black" stroke="black" points="280.5,-46.59 277,-36.59 273.5,-46.59 280.5,-46.59"/>
</g>
<!-- f7 -->
<g id="node8" class="node">
<title>f7</title>
<polygon fill="none" stroke="black" points="502.5,-146.5 502.5,-182.5 647.5,-182.5 647.5,-146.5 502.5,-146.5"/>
<text text-anchor="middle" x="532" y="-160.8" font-family="Times New Roman,serif" font-size="14.00">P3&#45;Dad</text>
<polyline fill="none" stroke="black" points="561.5,-146.5 561.5,-182.5 "/>
<text text-anchor="middle" x="571.5" y="-160.8" font-family="Times New Roman,serif" font-size="14.00"> </text>
<polyline fill="none" stroke="black" points="581.5,-146.5 581.5,-182.5 "/>
<text text-anchor="middle" x="614.5" y="-160.8" font-family="Times New Roman,serif" font-size="14.00">P3&#45;Mom</text>
</g>
<!-- f6&#45;&gt;f7 -->
<g id="edge12" class="edge">
<title>f6:u&#45;&gt;f7:h</title>
<path fill="none" stroke="black" d="M532,-219C532,-207 532,-201.75 532,-193.13"/>
<polygon fill="black" stroke="black" points="535.5,-193 532,-183 528.5,-193 535.5,-193"/>
</g>
<!-- i14 -->
<g id="node14" class="node">
<title>i14</title>
<polygon fill="none" stroke="black" points="544,-73.5 544,-109.5 598,-109.5 598,-73.5 544,-73.5"/>
<text text-anchor="middle" x="571" y="-87.8" font-family="Times New Roman,serif" font-size="14.00">T3</text>
</g>
<!-- f7&#45;&gt;i14 -->
<g id="edge13" class="edge">
<title>f7:u&#45;&gt;i14:i</title>
<path fill="none" stroke="black" d="M571,-146C571,-137.48 571,-128.22 571,-119.79"/>
<polygon fill="black" stroke="black" points="574.5,-119.67 571,-109.67 567.5,-119.67 574.5,-119.67"/>
</g>
<!-- i15 -->
<g id="node15" class="node">
<title>i15</title>
<polygon fill="none" stroke="black" points="339,-73.5 339,-109.5 393,-109.5 393,-73.5 339,-73.5"/>
<text text-anchor="middle" x="366" y="-87.8" font-family="Times New Roman,serif" font-size="14.00">F</text>
</g>
<!-- f12&#45;&gt;i15 -->
<g id="edge14" class="edge">
<title>f12:i&#45;&gt;i15:i</title>
<path fill="none" stroke="black" d="M366,-146.46C366,-138.38 366,-128.68 366,-119.68"/>
<polygon fill="black" stroke="black" points="369.5,-119.59 366,-109.59 362.5,-119.59 369.5,-119.59"/>
</g>
</g>
</svg>
