<?xml version="1.0" encoding="UTF-8" standalone="no"?>
<!DOCTYPE svg PUBLIC "-//W3C//DTD SVG 1.1//EN"
 "http://www.w3.org/Graphics/SVG/1.1/DTD/svg11.dtd">
<!-- Generated by graphviz version 2.48.0 (20210717.1556)
 -->
<!-- Title: family Pages: 1 -->
<svg width="552pt" height="332pt"
 viewBox="0.00 0.00 551.50 332.00" xmlns="http://www.w3.org/2000/svg" xmlns:xlink="http://www.w3.org/1999/xlink">
<g id="graph0" class="graph" transform="scale(1 1) rotate(0) translate(4 328)">
<title>family</title>
<polygon fill="white" stroke="transparent" points="-4,4 -4,-328 547.5,-328 547.5,4 -4,4"/>
<text text-anchor="middle" x="271.75" y="-308.8" font-family="Times New Roman,serif" font-size="14.00">DNA matches between</text>
<text text-anchor="middle" x="271.75" y="-293.8" font-family="Times New Roman,serif" font-size="14.00">T1 @ 1000 cM</text>
<text text-anchor="middle" x="271.75" y="-278.8" font-family="Times New Roman,serif" font-size="14.00">T2 @ 2000 cM</text>
<text text-anchor="middle" x="271.75" y="-263.8" font-family="Times New Roman,serif" font-size="14.00">T3 @ 400 cM</text>
<!-- i15 -->
<g id="node1" class="node">
<title>i15</title>
<polygon fill="orange" stroke="orange" points="78,-0.5 78,-36.5 132,-36.5 132,-0.5 78,-0.5"/>
<text text-anchor="middle" x="105" y="-14.8" font-family="Times New Roman,serif" font-size="14.00">B</text>
</g>
<!-- i16 -->
<g id="node2" class="node">
<title>i16</title>
<polygon fill="orange" stroke="orange" points="150,-0.5 150,-36.5 204,-36.5 204,-0.5 150,-0.5"/>
<text text-anchor="middle" x="177" y="-14.8" font-family="Times New Roman,serif" font-size="14.00">C</text>
</g>
<!-- i1 -->
<g id="node3" class="node">
<title>i1</title>
<polygon fill="lightblue" stroke="lightblue" points="277,-0.5 277,-36.5 331,-36.5 331,-0.5 277,-0.5"/>
<text text-anchor="middle" x="304" y="-14.8" font-family="Times New Roman,serif" font-size="14.00">T1</text>
</g>
<!-- i11 -->
<g id="node4" class="node">
<title>i11</title>
<polygon fill="lightblue" stroke="lightblue" points="0,-73.5 0,-109.5 54,-109.5 54,-73.5 0,-73.5"/>
<text text-anchor="middle" x="27" y="-87.8" font-family="Times New Roman,serif" font-size="14.00">T2</text>
</g>
<!-- i21 -->
<g id="node5" class="node">
<title>i21</title>
<polygon fill="lightblue" stroke="lightblue" points="440,-0.5 440,-36.5 494,-36.5 494,-0.5 440,-0.5"/>
<text text-anchor="middle" x="467" y="-14.8" font-family="Times New Roman,serif" font-size="14.00">T3</text>
</g>
<!-- f4 -->
<g id="node6" class="node">
<title>f4</title>
<polygon fill="none" stroke="black" points="72.5,-73.5 72.5,-109.5 217.5,-109.5 217.5,-73.5 72.5,-73.5"/>
<text text-anchor="middle" x="102" y="-87.8" font-family="Times New Roman,serif" font-size="14.00">P2&#45;Dad</text>
<polyline fill="none" stroke="black" points="131.5,-73.5 131.5,-109.5 "/>
<text text-anchor="middle" x="141.5" y="-87.8" font-family="Times New Roman,serif" font-size="14.00"> </text>
<polyline fill="none" stroke="black" points="151.5,-73.5 151.5,-109.5 "/>
<text text-anchor="middle" x="184.5" y="-87.8" font-family="Times New Roman,serif" font-size="14.00">P2&#45;Mom</text>
</g>
<!-- f4&#45;&gt;i15 -->
<g id="edge1" class="edge">
<title>f4:p&#45;&gt;i15</title>
<path fill="none" stroke="black" d="M141,-73C141,-62.86 136.5,-53.2 130.67,-44.95"/>
<polygon fill="black" stroke="black" points="133.23,-42.55 124.26,-36.9 127.76,-46.91 133.23,-42.55"/>
</g>
<!-- f4&#45;&gt;i16 -->
<g id="edge2" class="edge">
<title>f4:p&#45;&gt;i16</title>
<path fill="none" stroke="black" d="M141,-73C141,-62.86 145.5,-53.2 151.33,-44.95"/>
<polygon fill="black" stroke="black" points="154.24,-46.91 157.74,-36.9 148.77,-42.55 154.24,-46.91"/>
</g>
<!-- f1 -->
<g id="node7" class="node">
<title>f1</title>
<polygon fill="none" stroke="black" points="235.5,-73.5 235.5,-109.5 380.5,-109.5 380.5,-73.5 235.5,-73.5"/>
<text text-anchor="middle" x="265" y="-87.8" font-family="Times New Roman,serif" font-size="14.00">P1&#45;Dad</text>
<polyline fill="none" stroke="black" points="294.5,-73.5 294.5,-109.5 "/>
<text text-anchor="middle" x="304.5" y="-87.8" font-family="Times New Roman,serif" font-size="14.00"> </text>
<polyline fill="none" stroke="black" points="314.5,-73.5 314.5,-109.5 "/>
<text text-anchor="middle" x="347.5" y="-87.8" font-family="Times New Roman,serif" font-size="14.00">P1&#45;Mom</text>
</g>
<!-- f1&#45;&gt;i1 -->
<g id="edge3" class="edge">
<title>f1:p&#45;&gt;i1</title>
<path fill="none" stroke="black" d="M304,-73C304,-64.51 304,-55.26 304,-46.88"/>
<polygon fill="black" stroke="black" points="307.5,-46.85 304,-36.85 300.5,-46.85 307.5,-46.85"/>
</g>
<!-- f2 -->
<g id="node8" class="node">
<title>f2</title>
<polygon fill="none" stroke="black" points="57.5,-146.5 57.5,-182.5 224.5,-182.5 224.5,-146.5 57.5,-146.5"/>
<text text-anchor="middle" x="92.5" y="-160.8" font-family="Times New Roman,serif" font-size="14.00">GP1&#45;Dad</text>
<polyline fill="none" stroke="black" points="127.5,-146.5 127.5,-182.5 "/>
<text text-anchor="middle" x="137.5" y="-160.8" font-family="Times New Roman,serif" font-size="14.00"> </text>
<polyline fill="none" stroke="black" points="147.5,-146.5 147.5,-182.5 "/>
<text text-anchor="middle" x="186" y="-160.8" font-family="Times New Roman,serif" font-size="14.00">GP1&#45;Mom</text>
</g>
<!-- f2&#45;&gt;i11 -->
<g id="edge4" class="edge">
<title>f2:p&#45;&gt;i11</title>
<path fill="none" stroke="black" d="M137,-146C137,-146 95.39,-125.76 63.35,-110.18"/>
<polygon fill="black" stroke="black" points="64.71,-106.95 54.19,-105.72 61.65,-113.25 64.71,-106.95"/>
</g>
<!-- f2&#45;&gt;f4 -->
<g id="edge6" class="edge">
<title>f2:p&#45;&gt;f4:i10</title>
<path fill="none" stroke="black" d="M137,-146C137,-127.87 113.89,-130.17 105.23,-119.7"/>
<polygon fill="black" stroke="black" points="108.48,-118.38 102,-110 101.84,-120.59 108.48,-118.38"/>
</g>
<!-- f2&#45;&gt;f1 -->
<g id="edge8" class="edge">
<title>f2:p&#45;&gt;f1:i2</title>
<path fill="none" stroke="black" d="M137,-146C137,-103.33 195.47,-139.81 226,-110 228.7,-107.36 228.96,-103.65 229.02,-100.25"/>
<polygon fill="black" stroke="black" points="232.09,-101.92 234,-91.5 226.01,-98.46 232.09,-101.92"/>
</g>
<!-- f7 -->
<g id="node9" class="node">
<title>f7</title>
<polygon fill="none" stroke="black" points="398.5,-73.5 398.5,-109.5 543.5,-109.5 543.5,-73.5 398.5,-73.5"/>
<text text-anchor="middle" x="428" y="-87.8" font-family="Times New Roman,serif" font-size="14.00">P3&#45;Dad</text>
<polyline fill="none" stroke="black" points="457.5,-73.5 457.5,-109.5 "/>
<text text-anchor="middle" x="467.5" y="-87.8" font-family="Times New Roman,serif" font-size="14.00"> </text>
<polyline fill="none" stroke="black" points="477.5,-73.5 477.5,-109.5 "/>
<text text-anchor="middle" x="510.5" y="-87.8" font-family="Times New Roman,serif" font-size="14.00">P3&#45;Mom</text>
</g>
<!-- f7&#45;&gt;i21 -->
<g id="edge5" class="edge">
<title>f7:p&#45;&gt;i21</title>
<path fill="none" stroke="black" d="M467,-73C467,-64.51 467,-55.26 467,-46.88"/>
<polygon fill="black" stroke="black" points="470.5,-46.85 467,-36.85 463.5,-46.85 470.5,-46.85"/>
</g>
<!-- f3 -->
<g id="node10" class="node">
<title>f3</title>
<polygon fill="none" stroke="black" points="100,-219.5 100,-255.5 274,-255.5 274,-219.5 100,-219.5"/>
<text text-anchor="middle" x="137" y="-233.8" font-family="Times New Roman,serif" font-size="14.00">GGP&#45;Dad</text>
<polyline fill="none" stroke="black" points="174,-219.5 174,-255.5 "/>
<text text-anchor="middle" x="184" y="-233.8" font-family="Times New Roman,serif" font-size="14.00"> </text>
<polyline fill="none" stroke="black" points="194,-219.5 194,-255.5 "/>
<text text-anchor="middle" x="234" y="-233.8" font-family="Times New Roman,serif" font-size="14.00">GGP&#45;Mom</text>
</g>
<!-- f3&#45;&gt;f2 -->
<g id="edge7" class="edge">
<title>f3:p&#45;&gt;f2:i5</title>
<path fill="none" stroke="black" d="M184,-219C184,-179.21 108.44,-218.03 94.27,-192.98"/>
<polygon fill="black" stroke="black" points="97.63,-191.97 92,-183 90.81,-193.53 97.63,-191.97"/>
</g>
<!-- f6 -->
<g id="node11" class="node">
<title>f6</title>
<polygon fill="none" stroke="black" points="312.5,-146.5 312.5,-182.5 479.5,-182.5 479.5,-146.5 312.5,-146.5"/>
<text text-anchor="middle" x="347.5" y="-160.8" font-family="Times New Roman,serif" font-size="14.00">GP2&#45;Dad</text>
<polyline fill="none" stroke="black" points="382.5,-146.5 382.5,-182.5 "/>
<text text-anchor="middle" x="392.5" y="-160.8" font-family="Times New Roman,serif" font-size="14.00"> </text>
<polyline fill="none" stroke="black" points="402.5,-146.5 402.5,-182.5 "/>
<text text-anchor="middle" x="441" y="-160.8" font-family="Times New Roman,serif" font-size="14.00">GP2&#45;Mom</text>
</g>
<!-- f3&#45;&gt;f6 -->
<g id="edge10" class="edge">
<title>f3:p&#45;&gt;f6:i14</title>
<path fill="none" stroke="black" d="M184,-219C184,-205.56 269.48,-173.91 301.13,-166.21"/>
<polygon fill="black" stroke="black" points="301.75,-169.66 311,-164.5 300.55,-162.76 301.75,-169.66"/>
</g>
<!-- f6&#45;&gt;f7 -->
<g id="edge9" class="edge">
<title>f6:p&#45;&gt;f7:i19</title>
<path fill="none" stroke="black" d="M392,-146C392,-127.62 415.77,-130.28 424.68,-119.79"/>
<polygon fill="black" stroke="black" points="428.1,-120.59 428,-110 421.47,-118.34 428.1,-120.59"/>
</g>
</g>
</svg>
