<?xml version="1.0" encoding="UTF-8" standalone="no"?>
<!DOCTYPE svg PUBLIC "-//W3C//DTD SVG 1.1//EN"
 "http://www.w3.org/Graphics/SVG/1.1/DTD/svg11.dtd">
<!-- Generated by graphviz version 2.48.0 (20210717.1556)
 -->
<!-- Title: family Pages: 1 -->
<svg width="552pt" height="332pt"
 viewBox="0.00 0.00 552.00 332.00" xmlns="http://www.w3.org/2000/svg" xmlns:xlink="http://www.w3.org/1999/xlink">
<g id="graph0" class="graph" transform="scale(1 1) rotate(0) translate(4 328)">
<title>family</title>
<polygon fill="white" stroke="transparent" points="-4,4 -4,-328 548,-328 548,4 -4,4"/>
<text text-anchor="middle" x="272" y="-308.8" font-family="Times New Roman,serif" font-size="14.00">DNA matches between</text>
<text text-anchor="middle" x="272" y="-293.8" font-family="Times New Roman,serif" font-size="14.00">T1 @ 1000 cM</text>
<text text-anchor="middle" x="272" y="-278.8" font-family="Times New Roman,serif" font-size="14.00">T2 @ 2000 cM</text>
<text text-anchor="middle" x="272" y="-263.8" font-family="Times New Roman,serif" font-size="14.00">T3 @ 400 cM</text>
<!-- f1 -->
<g id="node1" class="node">
<title>f1</title>
<polygon fill="none" stroke="black" points="0,-73.5 0,-109.5 145,-109.5 145,-73.5 0,-73.5"/>
<text text-anchor="middle" x="29.5" y="-87.8" font-family="Times New Roman,serif" font-size="14.00">P1&#45;Dad</text>
<polyline fill="none" stroke="black" points="59,-73.5 59,-109.5 "/>
<text text-anchor="middle" x="69" y="-87.8" font-family="Times New Roman,serif" font-size="14.00"> </text>
<polyline fill="none" stroke="black" points="79,-73.5 79,-109.5 "/>
<text text-anchor="middle" x="112" y="-87.8" font-family="Times New Roman,serif" font-size="14.00">P1&#45;Mom</text>
</g>
<!-- i1 -->
<g id="node2" class="node">
<title>i1</title>
<polygon fill="lightblue" stroke="lightblue" points="41.5,-0.5 41.5,-36.5 95.5,-36.5 95.5,-0.5 41.5,-0.5"/>
<text text-anchor="middle" x="68.5" y="-14.8" font-family="Times New Roman,serif" font-size="14.00">T1</text>
</g>
<!-- f1&#45;&gt;i1 -->
<g id="edge1" class="edge">
<title>f1:p&#45;&gt;i1</title>
<path fill="none" stroke="black" d="M68.5,-73C68.5,-64.51 68.5,-55.26 68.5,-46.88"/>
<polygon fill="black" stroke="black" points="72,-46.85 68.5,-36.85 65,-46.85 72,-46.85"/>
</g>
<!-- f4 -->
<g id="node3" class="node">
<title>f4</title>
<polygon fill="none" stroke="black" points="163,-73.5 163,-109.5 308,-109.5 308,-73.5 163,-73.5"/>
<text text-anchor="middle" x="192.5" y="-87.8" font-family="Times New Roman,serif" font-size="14.00">P2&#45;Dad</text>
<polyline fill="none" stroke="black" points="222,-73.5 222,-109.5 "/>
<text text-anchor="middle" x="232" y="-87.8" font-family="Times New Roman,serif" font-size="14.00"> </text>
<polyline fill="none" stroke="black" points="242,-73.5 242,-109.5 "/>
<text text-anchor="middle" x="275" y="-87.8" font-family="Times New Roman,serif" font-size="14.00">P2&#45;Mom</text>
</g>
<!-- i15 -->
<g id="node4" class="node">
<title>i15</title>
<polygon fill="orange" stroke="orange" points="168.5,-0.5 168.5,-36.5 222.5,-36.5 222.5,-0.5 168.5,-0.5"/>
<text text-anchor="middle" x="195.5" y="-14.8" font-family="Times New Roman,serif" font-size="14.00">B</text>
</g>
<!-- f4&#45;&gt;i15 -->
<g id="edge3" class="edge">
<title>f4:p&#45;&gt;i15</title>
<path fill="none" stroke="black" d="M231.5,-73C231.5,-62.86 227,-53.2 221.17,-44.95"/>
<polygon fill="black" stroke="black" points="223.73,-42.55 214.76,-36.9 218.26,-46.91 223.73,-42.55"/>
</g>
<!-- i16 -->
<g id="node5" class="node">
<title>i16</title>
<polygon fill="orange" stroke="orange" points="240.5,-0.5 240.5,-36.5 294.5,-36.5 294.5,-0.5 240.5,-0.5"/>
<text text-anchor="middle" x="267.5" y="-14.8" font-family="Times New Roman,serif" font-size="14.00">C</text>
</g>
<!-- f4&#45;&gt;i16 -->
<g id="edge4" class="edge">
<title>f4:p&#45;&gt;i16</title>
<path fill="none" stroke="black" d="M231.5,-73C231.5,-62.86 236,-53.2 241.83,-44.95"/>
<polygon fill="black" stroke="black" points="244.74,-46.91 248.24,-36.9 239.27,-42.55 244.74,-46.91"/>
</g>
<!-- i11 -->
<g id="node6" class="node">
<title>i11</title>
<polygon fill="lightblue" stroke="lightblue" points="326.5,-73.5 326.5,-109.5 380.5,-109.5 380.5,-73.5 326.5,-73.5"/>
<text text-anchor="middle" x="353.5" y="-87.8" font-family="Times New Roman,serif" font-size="14.00">T2</text>
</g>
<!-- i21 -->
<g id="node7" class="node">
<title>i21</title>
<polygon fill="lightblue" stroke="lightblue" points="440.5,-0.5 440.5,-36.5 494.5,-36.5 494.5,-0.5 440.5,-0.5"/>
<text text-anchor="middle" x="467.5" y="-14.8" font-family="Times New Roman,serif" font-size="14.00">T3</text>
</g>
<!-- f2 -->
<g id="node8" class="node">
<title>f2</title>
<polygon fill="none" stroke="black" points="126,-146.5 126,-182.5 293,-182.5 293,-146.5 126,-146.5"/>
<text text-anchor="middle" x="161" y="-160.8" font-family="Times New Roman,serif" font-size="14.00">GP1&#45;Dad</text>
<polyline fill="none" stroke="black" points="196,-146.5 196,-182.5 "/>
<text text-anchor="middle" x="206" y="-160.8" font-family="Times New Roman,serif" font-size="14.00"> </text>
<polyline fill="none" stroke="black" points="216,-146.5 216,-182.5 "/>
<text text-anchor="middle" x="254.5" y="-160.8" font-family="Times New Roman,serif" font-size="14.00">GP1&#45;Mom</text>
</g>
<!-- f2&#45;&gt;f1 -->
<g id="edge8" class="edge">
<title>f2:p&#45;&gt;f1:i2</title>
<path fill="none" stroke="black" d="M205.5,-146C205.5,-70.06 46.27,-178.25 30.72,-120.29"/>
<polygon fill="black" stroke="black" points="34.15,-119.52 29.5,-110 27.2,-120.34 34.15,-119.52"/>
</g>
<!-- f2&#45;&gt;f4 -->
<g id="edge2" class="edge">
<title>f2:p&#45;&gt;f4:i10</title>
<path fill="none" stroke="black" d="M205.5,-146C205.5,-132.98 197.88,-128.76 194.31,-119.87"/>
<polygon fill="black" stroke="black" points="197.74,-119.21 192.5,-110 190.86,-120.47 197.74,-119.21"/>
</g>
<!-- f2&#45;&gt;i11 -->
<g id="edge5" class="edge">
<title>f2:p&#45;&gt;i11</title>
<path fill="none" stroke="black" d="M205.5,-146C205.5,-94.14 268.29,-129.13 316.5,-110 316.6,-109.96 316.7,-109.92 316.8,-109.88"/>
<polygon fill="black" stroke="black" points="318.36,-113.02 326.19,-105.89 315.62,-106.58 318.36,-113.02"/>
</g>
<!-- f7 -->
<g id="node9" class="node">
<title>f7</title>
<polygon fill="none" stroke="black" points="399,-73.5 399,-109.5 544,-109.5 544,-73.5 399,-73.5"/>
<text text-anchor="middle" x="428.5" y="-87.8" font-family="Times New Roman,serif" font-size="14.00">P3&#45;Dad</text>
<polyline fill="none" stroke="black" points="458,-73.5 458,-109.5 "/>
<text text-anchor="middle" x="468" y="-87.8" font-family="Times New Roman,serif" font-size="14.00"> </text>
<polyline fill="none" stroke="black" points="478,-73.5 478,-109.5 "/>
<text text-anchor="middle" x="511" y="-87.8" font-family="Times New Roman,serif" font-size="14.00">P3&#45;Mom</text>
</g>
<!-- f7&#45;&gt;i21 -->
<g id="edge6" class="edge">
<title>f7:p&#45;&gt;i21</title>
<path fill="none" stroke="black" d="M467.5,-73C467.5,-64.51 467.5,-55.26 467.5,-46.88"/>
<polygon fill="black" stroke="black" points="471,-46.85 467.5,-36.85 464,-46.85 471,-46.85"/>
</g>
<!-- f3 -->
<g id="node10" class="node">
<title>f3</title>
<polygon fill="none" stroke="black" points="168.5,-219.5 168.5,-255.5 342.5,-255.5 342.5,-219.5 168.5,-219.5"/>
<text text-anchor="middle" x="205.5" y="-233.8" font-family="Times New Roman,serif" font-size="14.00">GGP&#45;Dad</text>
<polyline fill="none" stroke="black" points="242.5,-219.5 242.5,-255.5 "/>
<text text-anchor="middle" x="252.5" y="-233.8" font-family="Times New Roman,serif" font-size="14.00"> </text>
<polyline fill="none" stroke="black" points="262.5,-219.5 262.5,-255.5 "/>
<text text-anchor="middle" x="302.5" y="-233.8" font-family="Times New Roman,serif" font-size="14.00">GGP&#45;Mom</text>
</g>
<!-- f3&#45;&gt;f2 -->
<g id="edge7" class="edge">
<title>f3:p&#45;&gt;f2:i5</title>
<path fill="none" stroke="black" d="M252.5,-219C252.5,-179.21 176.94,-218.03 162.77,-192.98"/>
<polygon fill="black" stroke="black" points="166.13,-191.97 160.5,-183 159.31,-193.53 166.13,-191.97"/>
</g>
<!-- f6 -->
<g id="node11" class="node">
<title>f6</title>
<polygon fill="none" stroke="black" points="336,-146.5 336,-182.5 503,-182.5 503,-146.5 336,-146.5"/>
<text text-anchor="middle" x="371" y="-160.8" font-family="Times New Roman,serif" font-size="14.00">GP2&#45;Dad</text>
<polyline fill="none" stroke="black" points="406,-146.5 406,-182.5 "/>
<text text-anchor="middle" x="416" y="-160.8" font-family="Times New Roman,serif" font-size="14.00"> </text>
<polyline fill="none" stroke="black" points="426,-146.5 426,-182.5 "/>
<text text-anchor="middle" x="464.5" y="-160.8" font-family="Times New Roman,serif" font-size="14.00">GP2&#45;Mom</text>
</g>
<!-- f3&#45;&gt;f6 -->
<g id="edge10" class="edge">
<title>f3:p&#45;&gt;f6:i14</title>
<path fill="none" stroke="black" d="M252.5,-219C252.5,-214.53 303.51,-181.03 325.21,-168.88"/>
<polygon fill="black" stroke="black" points="326.95,-171.94 334.5,-164.5 323.96,-165.61 326.95,-171.94"/>
</g>
<!-- f6&#45;&gt;f7 -->
<g id="edge9" class="edge">
<title>f6:p&#45;&gt;f7:i19</title>
<path fill="none" stroke="black" d="M415.5,-146C415.5,-132.98 423.12,-128.76 426.69,-119.87"/>
<polygon fill="black" stroke="black" points="430.14,-120.47 428.5,-110 423.26,-119.21 430.14,-120.47"/>
</g>
</g>
</svg>
