<?xml version="1.0" encoding="UTF-8" standalone="no"?>
<!DOCTYPE svg PUBLIC "-//W3C//DTD SVG 1.1//EN"
 "http://www.w3.org/Graphics/SVG/1.1/DTD/svg11.dtd">
<!-- Generated by graphviz version 2.48.0 (20210717.1556)
 -->
<!-- Title: family Pages: 1 -->
<svg width="493pt" height="360pt"
 viewBox="0.00 0.00 493.00 360.00" xmlns="http://www.w3.org/2000/svg" xmlns:xlink="http://www.w3.org/1999/xlink">
<g id="graph0" class="graph" transform="scale(1 1) rotate(0) translate(4 356)">
<title>family</title>
<polygon fill="white" stroke="transparent" points="-4,4 -4,-356 489,-356 489,4 -4,4"/>
<text text-anchor="middle" x="242.5" y="-7.8" font-family="Times New Roman,serif" font-size="14.00">Tester T1 matches atDNA 1000 cM</text>
<!-- f1 -->
<g id="node1" class="node">
<title>f1</title>
<polygon fill="orange" stroke="orange" points="271,-315.5 271,-351.5 445,-351.5 445,-315.5 271,-315.5"/>
<text text-anchor="middle" x="308" y="-329.8" font-family="Times New Roman,serif" font-size="14.00">GGP&#45;Dad</text>
<polyline fill="none" stroke="orange" points="345,-315.5 345,-351.5 "/>
<text text-anchor="middle" x="355" y="-329.8" font-family="Times New Roman,serif" font-size="14.00"> </text>
<polyline fill="none" stroke="orange" points="365,-315.5 365,-351.5 "/>
<text text-anchor="middle" x="405" y="-329.8" font-family="Times New Roman,serif" font-size="14.00">GGP&#45;Mom</text>
</g>
<!-- f2 -->
<g id="node2" class="node">
<title>f2</title>
<polygon fill="orange" stroke="orange" points="226.5,-242.5 226.5,-278.5 393.5,-278.5 393.5,-242.5 226.5,-242.5"/>
<text text-anchor="middle" x="261.5" y="-256.8" font-family="Times New Roman,serif" font-size="14.00">GP1&#45;Dad</text>
<polyline fill="none" stroke="orange" points="296.5,-242.5 296.5,-278.5 "/>
<text text-anchor="middle" x="306.5" y="-256.8" font-family="Times New Roman,serif" font-size="14.00"> </text>
<polyline fill="none" stroke="orange" points="316.5,-242.5 316.5,-278.5 "/>
<text text-anchor="middle" x="355" y="-256.8" font-family="Times New Roman,serif" font-size="14.00">GP1&#45;Mom</text>
</g>
<!-- f1&#45;&gt;f2 -->
<g id="edge1" class="edge">
<title>f1:u&#45;&gt;f2:h</title>
<path fill="none" stroke="black" d="M355,-315C355,-274.28 277.13,-314.92 263.14,-288.82"/>
<polygon fill="black" stroke="black" points="266.55,-288.03 261,-279 259.71,-289.52 266.55,-288.03"/>
</g>
<!-- f6 -->
<g id="node7" class="node">
<title>f6</title>
<polygon fill="orange" stroke="orange" points="415,-242.5 415,-278.5 485,-278.5 485,-242.5 415,-242.5"/>
<text text-anchor="middle" x="450" y="-256.8" font-family="Times New Roman,serif" font-size="14.00">GP2&#45;Dad</text>
</g>
<!-- f1&#45;&gt;f6 -->
<g id="edge11" class="edge">
<title>f1:u&#45;&gt;f6:h</title>
<path fill="none" stroke="black" d="M355,-315C355,-313.36 382.69,-297.6 408.17,-283.45"/>
<polygon fill="black" stroke="black" points="409.99,-286.45 417.04,-278.54 406.6,-280.32 409.99,-286.45"/>
</g>
<!-- f3 -->
<g id="node3" class="node">
<title>f3</title>
<polygon fill="none" stroke="black" points="30.5,-169.5 30.5,-205.5 175.5,-205.5 175.5,-169.5 30.5,-169.5"/>
<text text-anchor="middle" x="60" y="-183.8" font-family="Times New Roman,serif" font-size="14.00">P1&#45;Dad</text>
<polyline fill="none" stroke="black" points="89.5,-169.5 89.5,-205.5 "/>
<text text-anchor="middle" x="99.5" y="-183.8" font-family="Times New Roman,serif" font-size="14.00"> </text>
<polyline fill="none" stroke="black" points="109.5,-169.5 109.5,-205.5 "/>
<text text-anchor="middle" x="142.5" y="-183.8" font-family="Times New Roman,serif" font-size="14.00">P1&#45;Mom</text>
</g>
<!-- f2&#45;&gt;f3 -->
<g id="edge2" class="edge">
<title>f2:u&#45;&gt;f3:h</title>
<path fill="none" stroke="black" d="M306,-242C306,-190.64 93.38,-251.41 63.48,-215.82"/>
<polygon fill="black" stroke="black" points="66.64,-214.26 60,-206 60.04,-216.59 66.64,-214.26"/>
</g>
<!-- f4 -->
<g id="node4" class="node">
<title>f4</title>
<polygon fill="none" stroke="black" points="201.5,-169.5 201.5,-205.5 260.5,-205.5 260.5,-169.5 201.5,-169.5"/>
<text text-anchor="middle" x="231" y="-183.8" font-family="Times New Roman,serif" font-size="14.00">P2&#45;Dad</text>
</g>
<!-- f2&#45;&gt;f4 -->
<g id="edge5" class="edge">
<title>f2:u&#45;&gt;f4:h</title>
<path fill="none" stroke="black" d="M306,-242C306,-239.34 285.94,-224.85 266.56,-211.48"/>
<polygon fill="black" stroke="black" points="268.3,-208.43 258.08,-205.66 264.35,-214.2 268.3,-208.43"/>
</g>
<!-- f12 -->
<g id="node12" class="node">
<title>f12</title>
<polygon fill="none" stroke="black" points="279,-169.5 279,-205.5 333,-205.5 333,-169.5 279,-169.5"/>
<text text-anchor="middle" x="306" y="-183.8" font-family="Times New Roman,serif" font-size="14.00">T2</text>
</g>
<!-- f2&#45;&gt;f12 -->
<g id="edge9" class="edge">
<title>f2:u&#45;&gt;f12:i</title>
<path fill="none" stroke="black" d="M306,-242C306,-233.48 306,-224.22 306,-215.79"/>
<polygon fill="black" stroke="black" points="309.5,-215.67 306,-205.67 302.5,-215.67 309.5,-215.67"/>
</g>
<!-- i13 -->
<g id="node13" class="node">
<title>i13</title>
<polygon fill="none" stroke="black" points="351,-169.5 351,-205.5 405,-205.5 405,-169.5 351,-169.5"/>
<text text-anchor="middle" x="378" y="-183.8" font-family="Times New Roman,serif" font-size="14.00">E</text>
</g>
<!-- f2&#45;&gt;i13 -->
<g id="edge10" class="edge">
<title>f2:u&#45;&gt;i13:i</title>
<path fill="none" stroke="black" d="M306,-242C306,-239.41 325.26,-224.92 343.86,-211.53"/>
<polygon fill="black" stroke="black" points="345.91,-214.37 352.01,-205.7 341.84,-208.67 345.91,-214.37"/>
</g>
<!-- i8 -->
<g id="node9" class="node">
<title>i8</title>
<polygon fill="lightblue" stroke="lightblue" points="0,-96.5 0,-132.5 54,-132.5 54,-96.5 0,-96.5"/>
<text text-anchor="middle" x="27" y="-110.8" font-family="Times New Roman,serif" font-size="14.00">T1</text>
</g>
<!-- f3&#45;&gt;i8 -->
<g id="edge3" class="edge">
<title>f3:u&#45;&gt;i8:i</title>
<path fill="none" stroke="black" d="M99,-169C99,-166.41 79.74,-151.92 61.14,-138.53"/>
<polygon fill="black" stroke="black" points="63.16,-135.67 52.99,-132.7 59.09,-141.37 63.16,-135.67"/>
</g>
<!-- i9 -->
<g id="node10" class="node">
<title>i9</title>
<polygon fill="none" stroke="black" points="72,-96.5 72,-132.5 126,-132.5 126,-96.5 72,-96.5"/>
<text text-anchor="middle" x="99" y="-110.8" font-family="Times New Roman,serif" font-size="14.00">A</text>
</g>
<!-- f3&#45;&gt;i9 -->
<g id="edge4" class="edge">
<title>f3:u&#45;&gt;i9:i</title>
<path fill="none" stroke="black" d="M99,-169C99,-160.48 99,-151.22 99,-142.79"/>
<polygon fill="black" stroke="black" points="102.5,-142.67 99,-132.67 95.5,-142.67 102.5,-142.67"/>
</g>
<!-- i10 -->
<g id="node5" class="node">
<title>i10</title>
<polygon fill="orange" stroke="orange" points="144,-96.5 144,-132.5 198,-132.5 198,-96.5 144,-96.5"/>
<text text-anchor="middle" x="171" y="-110.8" font-family="Times New Roman,serif" font-size="14.00">B</text>
</g>
<!-- f4&#45;&gt;i10 -->
<g id="edge6" class="edge">
<title>f4:h&#45;&gt;i10:i</title>
<path fill="none" stroke="black" d="M216.17,-169.46C208.96,-160.68 200.16,-149.98 192.25,-140.35"/>
<polygon fill="black" stroke="black" points="194.92,-138.09 185.87,-132.59 189.51,-142.54 194.92,-138.09"/>
</g>
<!-- f5 -->
<g id="node6" class="node">
<title>f5</title>
<polygon fill="orange" stroke="orange" points="216,-96.5 216,-132.5 270,-132.5 270,-96.5 216,-96.5"/>
<text text-anchor="middle" x="243" y="-110.8" font-family="Times New Roman,serif" font-size="14.00">C</text>
</g>
<!-- f4&#45;&gt;f5 -->
<g id="edge7" class="edge">
<title>f4:h&#45;&gt;f5:h</title>
<path fill="none" stroke="black" d="M233.97,-169.46C235.29,-161.38 236.89,-151.68 238.37,-142.68"/>
<polygon fill="black" stroke="black" points="241.86,-143.03 240.03,-132.59 234.95,-141.89 241.86,-143.03"/>
</g>
<!-- i11 -->
<g id="node11" class="node">
<title>i11</title>
<polygon fill="none" stroke="black" points="216,-23.5 216,-59.5 270,-59.5 270,-23.5 216,-23.5"/>
<text text-anchor="middle" x="243" y="-37.8" font-family="Times New Roman,serif" font-size="14.00">D</text>
</g>
<!-- f5&#45;&gt;i11 -->
<g id="edge8" class="edge">
<title>f5:h&#45;&gt;i11:i</title>
<path fill="none" stroke="black" d="M243,-96.46C243,-88.38 243,-78.68 243,-69.68"/>
<polygon fill="black" stroke="black" points="246.5,-69.59 243,-59.59 239.5,-69.59 246.5,-69.59"/>
</g>
<!-- f7 -->
<g id="node8" class="node">
<title>f7</title>
<polygon fill="none" stroke="black" points="423.5,-169.5 423.5,-205.5 482.5,-205.5 482.5,-169.5 423.5,-169.5"/>
<text text-anchor="middle" x="453" y="-183.8" font-family="Times New Roman,serif" font-size="14.00">P3&#45;Dad</text>
</g>
<!-- f6&#45;&gt;f7 -->
<g id="edge12" class="edge">
<title>f6:h&#45;&gt;f7:h</title>
<path fill="none" stroke="black" d="M450.74,-242.46C451.07,-234.38 451.47,-224.68 451.84,-215.68"/>
<polygon fill="black" stroke="black" points="455.34,-215.73 452.26,-205.59 448.35,-215.44 455.34,-215.73"/>
</g>
<!-- i14 -->
<g id="node14" class="node">
<title>i14</title>
<polygon fill="none" stroke="black" points="426,-96.5 426,-132.5 480,-132.5 480,-96.5 426,-96.5"/>
<text text-anchor="middle" x="453" y="-110.8" font-family="Times New Roman,serif" font-size="14.00">T3</text>
</g>
<!-- f7&#45;&gt;i14 -->
<g id="edge13" class="edge">
<title>f7:h&#45;&gt;i14:i</title>
<path fill="none" stroke="black" d="M453,-169.46C453,-161.38 453,-151.68 453,-142.68"/>
<polygon fill="black" stroke="black" points="456.5,-142.59 453,-132.59 449.5,-142.59 456.5,-142.59"/>
</g>
<!-- i15 -->
<g id="node15" class="node">
<title>i15</title>
<polygon fill="orange" stroke="orange" points="288,-96.5 288,-132.5 342,-132.5 342,-96.5 288,-96.5"/>
<text text-anchor="middle" x="315" y="-110.8" font-family="Times New Roman,serif" font-size="14.00">F</text>
</g>
<!-- f12&#45;&gt;i15 -->
<g id="edge14" class="edge">
<title>f12:i&#45;&gt;i15:i</title>
<path fill="none" stroke="black" d="M308.22,-169.46C309.22,-161.38 310.42,-151.68 311.53,-142.68"/>
<polygon fill="black" stroke="black" points="315.02,-142.94 312.77,-132.59 308.07,-142.09 315.02,-142.94"/>
</g>
</g>
</svg>
