<?xml version="1.0" encoding="UTF-8" standalone="no"?>
<!DOCTYPE svg PUBLIC "-//W3C//DTD SVG 1.1//EN"
 "http://www.w3.org/Graphics/SVG/1.1/DTD/svg11.dtd">
<!-- Generated by graphviz version 2.48.0 (20210717.1556)
 -->
<!-- Title: family Pages: 1 -->
<svg width="478pt" height="360pt"
 viewBox="0.00 0.00 477.50 360.00" xmlns="http://www.w3.org/2000/svg" xmlns:xlink="http://www.w3.org/1999/xlink">
<g id="graph0" class="graph" transform="scale(1 1) rotate(0) translate(4 356)">
<title>family</title>
<polygon fill="white" stroke="transparent" points="-4,4 -4,-356 473.5,-356 473.5,4 -4,4"/>
<text text-anchor="middle" x="234.75" y="-7.8" font-family="Times New Roman,serif" font-size="14.00">Tester T2 matches atDNA 2000 cM</text>
<!-- f1 -->
<g id="node1" class="node">
<title>f1</title>
<polygon fill="orange" stroke="orange" points="218,-315.5 218,-351.5 392,-351.5 392,-315.5 218,-315.5"/>
<text text-anchor="middle" x="255" y="-329.8" font-family="Times New Roman,serif" font-size="14.00">GGP&#45;Dad</text>
<polyline fill="none" stroke="orange" points="292,-315.5 292,-351.5 "/>
<text text-anchor="middle" x="302" y="-329.8" font-family="Times New Roman,serif" font-size="14.00"> </text>
<polyline fill="none" stroke="orange" points="312,-315.5 312,-351.5 "/>
<text text-anchor="middle" x="352" y="-329.8" font-family="Times New Roman,serif" font-size="14.00">GGP&#45;Mom</text>
</g>
<!-- f2 -->
<g id="node2" class="node">
<title>f2</title>
<polygon fill="none" stroke="black" points="174.5,-242.5 174.5,-278.5 341.5,-278.5 341.5,-242.5 174.5,-242.5"/>
<text text-anchor="middle" x="209.5" y="-256.8" font-family="Times New Roman,serif" font-size="14.00">GP1&#45;Dad</text>
<polyline fill="none" stroke="black" points="244.5,-242.5 244.5,-278.5 "/>
<text text-anchor="middle" x="254.5" y="-256.8" font-family="Times New Roman,serif" font-size="14.00"> </text>
<polyline fill="none" stroke="black" points="264.5,-242.5 264.5,-278.5 "/>
<text text-anchor="middle" x="303" y="-256.8" font-family="Times New Roman,serif" font-size="14.00">GP1&#45;Mom</text>
</g>
<!-- f1&#45;&gt;f2 -->
<g id="edge1" class="edge">
<title>f1:u&#45;&gt;f2:h</title>
<path fill="none" stroke="black" d="M302,-315C302,-274.83 225.62,-314.3 211.3,-289.07"/>
<polygon fill="black" stroke="black" points="214.64,-287.97 209,-279 207.81,-289.53 214.64,-287.97"/>
</g>
<!-- f6 -->
<g id="node7" class="node">
<title>f6</title>
<polygon fill="orange" stroke="orange" points="360,-242.5 360,-278.5 450,-278.5 450,-242.5 360,-242.5"/>
<text text-anchor="middle" x="395" y="-256.8" font-family="Times New Roman,serif" font-size="14.00">GP2&#45;Dad</text>
<polyline fill="none" stroke="orange" points="430,-242.5 430,-278.5 "/>
<text text-anchor="middle" x="440" y="-256.8" font-family="Times New Roman,serif" font-size="14.00"> </text>
</g>
<!-- f1&#45;&gt;f6 -->
<g id="edge11" class="edge">
<title>f1:u&#45;&gt;f6:h</title>
<path fill="none" stroke="black" d="M302,-315C302,-287.98 334.16,-300.14 351,-279 353.27,-276.15 353.53,-272.57 353.65,-269.31"/>
<polygon fill="black" stroke="black" points="356.8,-270.86 359,-260.5 350.82,-267.23 356.8,-270.86"/>
</g>
<!-- f3 -->
<g id="node3" class="node">
<title>f3</title>
<polygon fill="orange" stroke="orange" points="29.5,-169.5 29.5,-205.5 108.5,-205.5 108.5,-169.5 29.5,-169.5"/>
<text text-anchor="middle" x="59" y="-183.8" font-family="Times New Roman,serif" font-size="14.00">P1&#45;Dad</text>
<polyline fill="none" stroke="orange" points="88.5,-169.5 88.5,-205.5 "/>
<text text-anchor="middle" x="98.5" y="-183.8" font-family="Times New Roman,serif" font-size="14.00"> </text>
</g>
<!-- f2&#45;&gt;f3 -->
<g id="edge2" class="edge">
<title>f2:u&#45;&gt;f3:h</title>
<path fill="none" stroke="black" d="M254,-242C254,-157.66 75.4,-282.5 60.05,-216.13"/>
<polygon fill="black" stroke="black" points="63.51,-215.59 59,-206 56.55,-216.31 63.51,-215.59"/>
</g>
<!-- f4 -->
<g id="node4" class="node">
<title>f4</title>
<polygon fill="orange" stroke="orange" points="149.5,-169.5 149.5,-205.5 228.5,-205.5 228.5,-169.5 149.5,-169.5"/>
<text text-anchor="middle" x="179" y="-183.8" font-family="Times New Roman,serif" font-size="14.00">P2&#45;Dad</text>
<polyline fill="none" stroke="orange" points="208.5,-169.5 208.5,-205.5 "/>
<text text-anchor="middle" x="218.5" y="-183.8" font-family="Times New Roman,serif" font-size="14.00"> </text>
</g>
<!-- f2&#45;&gt;f4 -->
<g id="edge5" class="edge">
<title>f2:u&#45;&gt;f4:h</title>
<path fill="none" stroke="black" d="M254,-242C254,-209.21 195.03,-235.34 181.67,-215.9"/>
<polygon fill="black" stroke="black" points="184.98,-214.74 179,-206 178.22,-216.57 184.98,-214.74"/>
</g>
<!-- f12 -->
<g id="node12" class="node">
<title>f12</title>
<polygon fill="lightblue" stroke="lightblue" points="247,-169.5 247,-205.5 301,-205.5 301,-169.5 247,-169.5"/>
<text text-anchor="middle" x="274" y="-183.8" font-family="Times New Roman,serif" font-size="14.00">T2</text>
</g>
<!-- f2&#45;&gt;f12 -->
<g id="edge9" class="edge">
<title>f2:u&#45;&gt;f12:i</title>
<path fill="none" stroke="black" d="M254,-242C254,-232.87 256.5,-223.38 259.74,-214.93"/>
<polygon fill="black" stroke="black" points="263.03,-216.13 263.77,-205.56 256.6,-213.37 263.03,-216.13"/>
</g>
<!-- i13 -->
<g id="node13" class="node">
<title>i13</title>
<polygon fill="orange" stroke="orange" points="319,-169.5 319,-205.5 373,-205.5 373,-169.5 319,-169.5"/>
<text text-anchor="middle" x="346" y="-183.8" font-family="Times New Roman,serif" font-size="14.00">E</text>
</g>
<!-- f2&#45;&gt;i13 -->
<g id="edge10" class="edge">
<title>f2:u&#45;&gt;i13:i</title>
<path fill="none" stroke="black" d="M254,-242C254,-212.33 283.79,-220.92 310.64,-210.13"/>
<polygon fill="black" stroke="black" points="312.21,-213.25 319.58,-205.64 309.07,-206.99 312.21,-213.25"/>
</g>
<!-- i8 -->
<g id="node9" class="node">
<title>i8</title>
<polygon fill="orange" stroke="orange" points="0,-96.5 0,-132.5 54,-132.5 54,-96.5 0,-96.5"/>
<text text-anchor="middle" x="27" y="-110.8" font-family="Times New Roman,serif" font-size="14.00">T1</text>
</g>
<!-- f3&#45;&gt;i8 -->
<g id="edge3" class="edge">
<title>f3:u&#45;&gt;i8:i</title>
<path fill="none" stroke="black" d="M99,-169C99,-166.41 79.74,-151.92 61.14,-138.53"/>
<polygon fill="black" stroke="black" points="63.16,-135.67 52.99,-132.7 59.09,-141.37 63.16,-135.67"/>
</g>
<!-- i9 -->
<g id="node10" class="node">
<title>i9</title>
<polygon fill="orange" stroke="orange" points="72,-96.5 72,-132.5 126,-132.5 126,-96.5 72,-96.5"/>
<text text-anchor="middle" x="99" y="-110.8" font-family="Times New Roman,serif" font-size="14.00">A</text>
</g>
<!-- f3&#45;&gt;i9 -->
<g id="edge4" class="edge">
<title>f3:u&#45;&gt;i9:i</title>
<path fill="none" stroke="black" d="M99,-169C99,-160.48 99,-151.22 99,-142.79"/>
<polygon fill="black" stroke="black" points="102.5,-142.67 99,-132.67 95.5,-142.67 102.5,-142.67"/>
</g>
<!-- i10 -->
<g id="node5" class="node">
<title>i10</title>
<polygon fill="orange" stroke="orange" points="144,-96.5 144,-132.5 198,-132.5 198,-96.5 144,-96.5"/>
<text text-anchor="middle" x="171" y="-110.8" font-family="Times New Roman,serif" font-size="14.00">B</text>
</g>
<!-- f4&#45;&gt;i10 -->
<g id="edge6" class="edge">
<title>f4:u&#45;&gt;i10:i</title>
<path fill="none" stroke="black" d="M219,-169C219,-161.88 209.66,-150.44 199.22,-139.87"/>
<polygon fill="black" stroke="black" points="201.52,-137.22 191.91,-132.75 196.64,-142.24 201.52,-137.22"/>
</g>
<!-- f5 -->
<g id="node6" class="node">
<title>f5</title>
<polygon fill="orange" stroke="orange" points="216,-96.5 216,-132.5 270,-132.5 270,-96.5 216,-96.5"/>
<text text-anchor="middle" x="243" y="-110.8" font-family="Times New Roman,serif" font-size="14.00">C</text>
</g>
<!-- f4&#45;&gt;f5 -->
<g id="edge7" class="edge">
<title>f4:u&#45;&gt;f5:i</title>
<path fill="none" stroke="black" d="M219,-169C219,-159.69 221.97,-150.18 225.83,-141.76"/>
<polygon fill="black" stroke="black" points="228.97,-143.29 230.44,-132.8 222.75,-140.09 228.97,-143.29"/>
</g>
<!-- i11 -->
<g id="node11" class="node">
<title>i11</title>
<polygon fill="none" stroke="black" points="216,-23.5 216,-59.5 270,-59.5 270,-23.5 216,-23.5"/>
<text text-anchor="middle" x="243" y="-37.8" font-family="Times New Roman,serif" font-size="14.00">D</text>
</g>
<!-- f5&#45;&gt;i11 -->
<g id="edge8" class="edge">
<title>f5:i&#45;&gt;i11:i</title>
<path fill="none" stroke="black" d="M243,-96.46C243,-88.38 243,-78.68 243,-69.68"/>
<polygon fill="black" stroke="black" points="246.5,-69.59 243,-59.59 239.5,-69.59 246.5,-69.59"/>
</g>
<!-- f7 -->
<g id="node8" class="node">
<title>f7</title>
<polygon fill="none" stroke="black" points="410.5,-169.5 410.5,-205.5 469.5,-205.5 469.5,-169.5 410.5,-169.5"/>
<text text-anchor="middle" x="440" y="-183.8" font-family="Times New Roman,serif" font-size="14.00">P3&#45;Dad</text>
</g>
<!-- f6&#45;&gt;f7 -->
<g id="edge12" class="edge">
<title>f6:u&#45;&gt;f7:h</title>
<path fill="none" stroke="black" d="M440,-242C440,-233.48 440,-224.22 440,-215.79"/>
<polygon fill="black" stroke="black" points="443.5,-215.67 440,-205.67 436.5,-215.67 443.5,-215.67"/>
</g>
<!-- i14 -->
<g id="node14" class="node">
<title>i14</title>
<polygon fill="none" stroke="black" points="413,-96.5 413,-132.5 467,-132.5 467,-96.5 413,-96.5"/>
<text text-anchor="middle" x="440" y="-110.8" font-family="Times New Roman,serif" font-size="14.00">T3</text>
</g>
<!-- f7&#45;&gt;i14 -->
<g id="edge13" class="edge">
<title>f7:h&#45;&gt;i14:i</title>
<path fill="none" stroke="black" d="M440,-169.46C440,-161.38 440,-151.68 440,-142.68"/>
<polygon fill="black" stroke="black" points="443.5,-142.59 440,-132.59 436.5,-142.59 443.5,-142.59"/>
</g>
<!-- i15 -->
<g id="node15" class="node">
<title>i15</title>
<polygon fill="none" stroke="black" points="288,-96.5 288,-132.5 342,-132.5 342,-96.5 288,-96.5"/>
<text text-anchor="middle" x="315" y="-110.8" font-family="Times New Roman,serif" font-size="14.00">F</text>
</g>
<!-- f12&#45;&gt;i15 -->
<g id="edge14" class="edge">
<title>f12:i&#45;&gt;i15:i</title>
<path fill="none" stroke="black" d="M284.13,-169.46C288.87,-161.03 294.6,-150.83 299.83,-141.51"/>
<polygon fill="black" stroke="black" points="302.99,-143.02 304.84,-132.59 296.89,-139.6 302.99,-143.02"/>
</g>
</g>
</svg>
