<?xml version="1.0" encoding="UTF-8" standalone="no"?>
<!DOCTYPE svg PUBLIC "-//W3C//DTD SVG 1.1//EN"
 "http://www.w3.org/Graphics/SVG/1.1/DTD/svg11.dtd">
<!-- Generated by graphviz version 2.48.0 (20210717.1556)
 -->
<!-- Title: family Pages: 1 -->
<svg width="554pt" height="360pt"
 viewBox="0.00 0.00 553.50 360.00" xmlns="http://www.w3.org/2000/svg" xmlns:xlink="http://www.w3.org/1999/xlink">
<g id="graph0" class="graph" transform="scale(1 1) rotate(0) translate(4 356)">
<title>family</title>
<polygon fill="white" stroke="transparent" points="-4,4 -4,-356 549.5,-356 549.5,4 -4,4"/>
<text text-anchor="middle" x="272.75" y="-7.8" font-family="Times New Roman,serif" font-size="14.00">Tester T3 matches atDNA 400 cM</text>
<!-- f1 -->
<g id="node1" class="node">
<title>f1</title>
<polygon fill="none" stroke="black" points="243,-315.5 243,-351.5 417,-351.5 417,-315.5 243,-315.5"/>
<text text-anchor="middle" x="280" y="-329.8" font-family="Times New Roman,serif" font-size="14.00">GGP&#45;Dad</text>
<polyline fill="none" stroke="black" points="317,-315.5 317,-351.5 "/>
<text text-anchor="middle" x="327" y="-329.8" font-family="Times New Roman,serif" font-size="14.00"> </text>
<polyline fill="none" stroke="black" points="337,-315.5 337,-351.5 "/>
<text text-anchor="middle" x="377" y="-329.8" font-family="Times New Roman,serif" font-size="14.00">GGP&#45;Mom</text>
</g>
<!-- f2 -->
<g id="node2" class="node">
<title>f2</title>
<polygon fill="orange" stroke="orange" points="248,-242.5 248,-278.5 318,-278.5 318,-242.5 248,-242.5"/>
<text text-anchor="middle" x="283" y="-256.8" font-family="Times New Roman,serif" font-size="14.00">GP1&#45;Dad</text>
</g>
<!-- f1&#45;&gt;f2 -->
<g id="edge1" class="edge">
<title>f1:u&#45;&gt;f2:h</title>
<path fill="none" stroke="black" d="M327,-315C327,-304.22 321.72,-294.37 314.82,-286.1"/>
<polygon fill="black" stroke="black" points="317.23,-283.55 307.83,-278.67 312.14,-288.35 317.23,-283.55"/>
</g>
<!-- f6 -->
<g id="node7" class="node">
<title>f6</title>
<polygon fill="none" stroke="black" points="343.5,-242.5 343.5,-278.5 510.5,-278.5 510.5,-242.5 343.5,-242.5"/>
<text text-anchor="middle" x="378.5" y="-256.8" font-family="Times New Roman,serif" font-size="14.00">GP2&#45;Dad</text>
<polyline fill="none" stroke="black" points="413.5,-242.5 413.5,-278.5 "/>
<text text-anchor="middle" x="423.5" y="-256.8" font-family="Times New Roman,serif" font-size="14.00"> </text>
<polyline fill="none" stroke="black" points="433.5,-242.5 433.5,-278.5 "/>
<text text-anchor="middle" x="472" y="-256.8" font-family="Times New Roman,serif" font-size="14.00">GP2&#45;Mom</text>
</g>
<!-- f1&#45;&gt;f6 -->
<g id="edge11" class="edge">
<title>f1:u&#45;&gt;f6:h</title>
<path fill="none" stroke="black" d="M327,-315C327,-291.37 363.98,-302 374.96,-288.54"/>
<polygon fill="black" stroke="black" points="378.3,-289.59 378,-279 371.63,-287.47 378.3,-289.59"/>
</g>
<!-- f3 -->
<g id="node3" class="node">
<title>f3</title>
<polygon fill="orange" stroke="orange" points="69.5,-169.5 69.5,-205.5 128.5,-205.5 128.5,-169.5 69.5,-169.5"/>
<text text-anchor="middle" x="99" y="-183.8" font-family="Times New Roman,serif" font-size="14.00">P1&#45;Dad</text>
</g>
<!-- f2&#45;&gt;f3 -->
<g id="edge2" class="edge">
<title>f2:h&#45;&gt;f3:h</title>
<path fill="none" stroke="black" d="M249.15,-242.48C248.76,-242.32 248.38,-242.16 248,-242 199.7,-222.21 180.98,-228.27 136.32,-209.62"/>
<polygon fill="black" stroke="black" points="137.58,-206.35 127.02,-205.54 134.77,-212.76 137.58,-206.35"/>
</g>
<!-- f4 -->
<g id="node4" class="node">
<title>f4</title>
<polygon fill="orange" stroke="orange" points="178.5,-169.5 178.5,-205.5 237.5,-205.5 237.5,-169.5 178.5,-169.5"/>
<text text-anchor="middle" x="208" y="-183.8" font-family="Times New Roman,serif" font-size="14.00">P2&#45;Dad</text>
</g>
<!-- f2&#45;&gt;f4 -->
<g id="edge5" class="edge">
<title>f2:h&#45;&gt;f4:h</title>
<path fill="none" stroke="black" d="M264.46,-242.46C255.27,-233.51 244.01,-222.55 233.97,-212.78"/>
<polygon fill="black" stroke="black" points="236.19,-210.06 226.59,-205.59 231.31,-215.07 236.19,-210.06"/>
</g>
<!-- f12 -->
<g id="node12" class="node">
<title>f12</title>
<polygon fill="orange" stroke="orange" points="256,-169.5 256,-205.5 310,-205.5 310,-169.5 256,-169.5"/>
<text text-anchor="middle" x="283" y="-183.8" font-family="Times New Roman,serif" font-size="14.00">T2</text>
</g>
<!-- f2&#45;&gt;f12 -->
<g id="edge9" class="edge">
<title>f2:h&#45;&gt;f12:i</title>
<path fill="none" stroke="black" d="M283,-242.46C283,-234.38 283,-224.68 283,-215.68"/>
<polygon fill="black" stroke="black" points="286.5,-215.59 283,-205.59 279.5,-215.59 286.5,-215.59"/>
</g>
<!-- i13 -->
<g id="node13" class="node">
<title>i13</title>
<polygon fill="orange" stroke="orange" points="328,-169.5 328,-205.5 382,-205.5 382,-169.5 328,-169.5"/>
<text text-anchor="middle" x="355" y="-183.8" font-family="Times New Roman,serif" font-size="14.00">E</text>
</g>
<!-- f2&#45;&gt;i13 -->
<g id="edge10" class="edge">
<title>f2:h&#45;&gt;i13:i</title>
<path fill="none" stroke="black" d="M300.8,-242.46C309.62,-233.51 320.43,-222.55 330.07,-212.78"/>
<polygon fill="black" stroke="black" points="332.63,-215.17 337.16,-205.59 327.64,-210.25 332.63,-215.17"/>
</g>
<!-- i8 -->
<g id="node9" class="node">
<title>i8</title>
<polygon fill="orange" stroke="orange" points="0,-96.5 0,-132.5 54,-132.5 54,-96.5 0,-96.5"/>
<text text-anchor="middle" x="27" y="-110.8" font-family="Times New Roman,serif" font-size="14.00">T1</text>
</g>
<!-- f3&#45;&gt;i8 -->
<g id="edge3" class="edge">
<title>f3:h&#45;&gt;i8:i</title>
<path fill="none" stroke="black" d="M81.2,-169.46C72.38,-160.51 61.57,-149.55 51.93,-139.78"/>
<polygon fill="black" stroke="black" points="54.36,-137.25 44.84,-132.59 49.37,-142.17 54.36,-137.25"/>
</g>
<!-- i9 -->
<g id="node10" class="node">
<title>i9</title>
<polygon fill="orange" stroke="orange" points="72,-96.5 72,-132.5 126,-132.5 126,-96.5 72,-96.5"/>
<text text-anchor="middle" x="99" y="-110.8" font-family="Times New Roman,serif" font-size="14.00">A</text>
</g>
<!-- f3&#45;&gt;i9 -->
<g id="edge4" class="edge">
<title>f3:h&#45;&gt;i9:i</title>
<path fill="none" stroke="black" d="M99,-169.46C99,-161.38 99,-151.68 99,-142.68"/>
<polygon fill="black" stroke="black" points="102.5,-142.59 99,-132.59 95.5,-142.59 102.5,-142.59"/>
</g>
<!-- i10 -->
<g id="node5" class="node">
<title>i10</title>
<polygon fill="orange" stroke="orange" points="144,-96.5 144,-132.5 198,-132.5 198,-96.5 144,-96.5"/>
<text text-anchor="middle" x="171" y="-110.8" font-family="Times New Roman,serif" font-size="14.00">B</text>
</g>
<!-- f4&#45;&gt;i10 -->
<g id="edge6" class="edge">
<title>f4:h&#45;&gt;i10:i</title>
<path fill="none" stroke="black" d="M198.85,-169.46C194.58,-161.03 189.41,-150.83 184.69,-141.51"/>
<polygon fill="black" stroke="black" points="187.81,-139.93 180.17,-132.59 181.57,-143.09 187.81,-139.93"/>
</g>
<!-- f5 -->
<g id="node6" class="node">
<title>f5</title>
<polygon fill="orange" stroke="orange" points="216,-96.5 216,-132.5 270,-132.5 270,-96.5 216,-96.5"/>
<text text-anchor="middle" x="243" y="-110.8" font-family="Times New Roman,serif" font-size="14.00">C</text>
</g>
<!-- f4&#45;&gt;f5 -->
<g id="edge7" class="edge">
<title>f4:h&#45;&gt;f5:h</title>
<path fill="none" stroke="black" d="M216.65,-169.46C220.65,-161.12 225.48,-151.04 229.91,-141.8"/>
<polygon fill="black" stroke="black" points="233.16,-143.12 234.33,-132.59 226.85,-140.09 233.16,-143.12"/>
</g>
<!-- i11 -->
<g id="node11" class="node">
<title>i11</title>
<polygon fill="none" stroke="black" points="216,-23.5 216,-59.5 270,-59.5 270,-23.5 216,-23.5"/>
<text text-anchor="middle" x="243" y="-37.8" font-family="Times New Roman,serif" font-size="14.00">D</text>
</g>
<!-- f5&#45;&gt;i11 -->
<g id="edge8" class="edge">
<title>f5:h&#45;&gt;i11:i</title>
<path fill="none" stroke="black" d="M243,-96.46C243,-88.38 243,-78.68 243,-69.68"/>
<polygon fill="black" stroke="black" points="246.5,-69.59 243,-59.59 239.5,-69.59 246.5,-69.59"/>
</g>
<!-- f7 -->
<g id="node8" class="node">
<title>f7</title>
<polygon fill="none" stroke="black" points="400.5,-169.5 400.5,-205.5 545.5,-205.5 545.5,-169.5 400.5,-169.5"/>
<text text-anchor="middle" x="430" y="-183.8" font-family="Times New Roman,serif" font-size="14.00">P3&#45;Dad</text>
<polyline fill="none" stroke="black" points="459.5,-169.5 459.5,-205.5 "/>
<text text-anchor="middle" x="469.5" y="-183.8" font-family="Times New Roman,serif" font-size="14.00"> </text>
<polyline fill="none" stroke="black" points="479.5,-169.5 479.5,-205.5 "/>
<text text-anchor="middle" x="512.5" y="-183.8" font-family="Times New Roman,serif" font-size="14.00">P3&#45;Mom</text>
</g>
<!-- f6&#45;&gt;f7 -->
<g id="edge12" class="edge">
<title>f6:u&#45;&gt;f7:h</title>
<path fill="none" stroke="black" d="M423,-242C423,-229.78 426.94,-224.81 428.91,-216.21"/>
<polygon fill="black" stroke="black" points="432.41,-216.32 430,-206 425.45,-215.57 432.41,-216.32"/>
</g>
<!-- i14 -->
<g id="node14" class="node">
<title>i14</title>
<polygon fill="lightblue" stroke="lightblue" points="442,-96.5 442,-132.5 496,-132.5 496,-96.5 442,-96.5"/>
<text text-anchor="middle" x="469" y="-110.8" font-family="Times New Roman,serif" font-size="14.00">T3</text>
</g>
<!-- f7&#45;&gt;i14 -->
<g id="edge13" class="edge">
<title>f7:u&#45;&gt;i14:i</title>
<path fill="none" stroke="black" d="M469,-169C469,-160.48 469,-151.22 469,-142.79"/>
<polygon fill="black" stroke="black" points="472.5,-142.67 469,-132.67 465.5,-142.67 472.5,-142.67"/>
</g>
<!-- i15 -->
<g id="node15" class="node">
<title>i15</title>
<polygon fill="orange" stroke="orange" points="288,-96.5 288,-132.5 342,-132.5 342,-96.5 288,-96.5"/>
<text text-anchor="middle" x="315" y="-110.8" font-family="Times New Roman,serif" font-size="14.00">F</text>
</g>
<!-- f12&#45;&gt;i15 -->
<g id="edge14" class="edge">
<title>f12:i&#45;&gt;i15:i</title>
<path fill="none" stroke="black" d="M290.91,-169.46C294.56,-161.12 298.98,-151.04 303.03,-141.8"/>
<polygon fill="black" stroke="black" points="306.26,-143.15 307.07,-132.59 299.85,-140.34 306.26,-143.15"/>
</g>
</g>
</svg>
