<?xml version="1.0" encoding="UTF-8" standalone="no"?>
<!DOCTYPE svg PUBLIC "-//W3C//DTD SVG 1.1//EN"
 "http://www.w3.org/Graphics/SVG/1.1/DTD/svg11.dtd">
<!-- Generated by graphviz version 2.48.0 (20210717.1556)
 -->
<!-- Title: family Pages: 1 -->
<svg width="862pt" height="337pt"
 viewBox="0.00 0.00 861.50 337.00" xmlns="http://www.w3.org/2000/svg" xmlns:xlink="http://www.w3.org/1999/xlink">
<g id="graph0" class="graph" transform="scale(1 1) rotate(0) translate(4 333)">
<title>family</title>
<polygon fill="white" stroke="transparent" points="-4,4 -4,-333 857.5,-333 857.5,4 -4,4"/>
<!-- f1 -->
<g id="node1" class="node">
<title>f1</title>
<polygon fill="none" stroke="black" points="395,-292.5 395,-328.5 620,-328.5 620,-292.5 395,-292.5"/>
<text text-anchor="middle" x="441.5" y="-306.8" font-family="Times New Roman,serif" font-size="14.00">GGP&#45;Dad (7)</text>
<polyline fill="none" stroke="black" points="488,-292.5 488,-328.5 "/>
<text text-anchor="middle" x="504" y="-306.8" font-family="Times New Roman,serif" font-size="14.00">(3)</text>
<polyline fill="none" stroke="black" points="520,-292.5 520,-328.5 "/>
<text text-anchor="middle" x="570" y="-306.8" font-family="Times New Roman,serif" font-size="14.00">GGP&#45;Mom (8)</text>
</g>
<!-- f2 -->
<g id="node2" class="node">
<title>f2</title>
<polygon fill="none" stroke="black" points="340,-219.5 340,-255.5 557,-255.5 557,-219.5 340,-219.5"/>
<text text-anchor="middle" x="384.5" y="-233.8" font-family="Times New Roman,serif" font-size="14.00">GP1&#45;Dad (5)</text>
<polyline fill="none" stroke="black" points="429,-219.5 429,-255.5 "/>
<text text-anchor="middle" x="445" y="-233.8" font-family="Times New Roman,serif" font-size="14.00">(2)</text>
<polyline fill="none" stroke="black" points="461,-219.5 461,-255.5 "/>
<text text-anchor="middle" x="509" y="-233.8" font-family="Times New Roman,serif" font-size="14.00">GP1&#45;Mom (6)</text>
</g>
<!-- f1&#45;&gt;f2 -->
<g id="edge1" class="edge">
<title>f1:u&#45;&gt;f2:h</title>
<path fill="none" stroke="black" d="M503.5,-292C503.5,-240.84 401.51,-300.91 386.37,-266.26"/>
<polygon fill="black" stroke="black" points="389.73,-265.21 384.5,-256 382.85,-266.47 389.73,-265.21"/>
</g>
<!-- f6 -->
<g id="node7" class="node">
<title>f6</title>
<polygon fill="none" stroke="black" points="575,-219.5 575,-255.5 806,-255.5 806,-219.5 575,-219.5"/>
<text text-anchor="middle" x="623" y="-233.8" font-family="Times New Roman,serif" font-size="14.00">GP2&#45;Dad (14)</text>
<polyline fill="none" stroke="black" points="671,-219.5 671,-255.5 "/>
<text text-anchor="middle" x="687" y="-233.8" font-family="Times New Roman,serif" font-size="14.00">(6)</text>
<polyline fill="none" stroke="black" points="703,-219.5 703,-255.5 "/>
<text text-anchor="middle" x="754.5" y="-233.8" font-family="Times New Roman,serif" font-size="14.00">GP2&#45;Mom (18)</text>
</g>
<!-- f1&#45;&gt;f6 -->
<g id="edge11" class="edge">
<title>f1:u&#45;&gt;f6:h</title>
<path fill="none" stroke="black" d="M503.5,-292C503.5,-259.75 545.56,-280.53 566.5,-256 568.82,-253.28 568.96,-249.72 568.9,-246.45"/>
<polygon fill="black" stroke="black" points="572.04,-247.99 573.5,-237.5 565.81,-244.79 572.04,-247.99"/>
</g>
<!-- f3 -->
<g id="node3" class="node">
<title>f3</title>
<polygon fill="none" stroke="black" points="0,-146.5 0,-182.5 197,-182.5 197,-146.5 0,-146.5"/>
<text text-anchor="middle" x="39.5" y="-160.8" font-family="Times New Roman,serif" font-size="14.00">P1&#45;Dad (2)</text>
<polyline fill="none" stroke="black" points="79,-146.5 79,-182.5 "/>
<text text-anchor="middle" x="95" y="-160.8" font-family="Times New Roman,serif" font-size="14.00">(1)</text>
<polyline fill="none" stroke="black" points="111,-146.5 111,-182.5 "/>
<text text-anchor="middle" x="154" y="-160.8" font-family="Times New Roman,serif" font-size="14.00">P1&#45;Mom (3)</text>
</g>
<!-- f2&#45;&gt;f3 -->
<g id="edge2" class="edge">
<title>f2:u&#45;&gt;f3:h</title>
<path fill="none" stroke="black" d="M444.5,-219C444.5,-132.35 72.04,-261.88 41.49,-192.96"/>
<polygon fill="black" stroke="black" points="44.89,-192.12 39.5,-183 38.02,-193.49 44.89,-192.12"/>
</g>
<!-- f4 -->
<g id="node4" class="node">
<title>f4</title>
<polygon fill="none" stroke="black" points="215.5,-146.5 215.5,-182.5 425.5,-182.5 425.5,-146.5 215.5,-146.5"/>
<text text-anchor="middle" x="258.5" y="-160.8" font-family="Times New Roman,serif" font-size="14.00">P2&#45;Dad (10)</text>
<polyline fill="none" stroke="black" points="301.5,-146.5 301.5,-182.5 "/>
<text text-anchor="middle" x="317.5" y="-160.8" font-family="Times New Roman,serif" font-size="14.00">(4)</text>
<polyline fill="none" stroke="black" points="333.5,-146.5 333.5,-182.5 "/>
<text text-anchor="middle" x="379.5" y="-160.8" font-family="Times New Roman,serif" font-size="14.00">P2&#45;Mom (13)</text>
</g>
<!-- f2&#45;&gt;f4 -->
<g id="edge5" class="edge">
<title>f2:u&#45;&gt;f4:h</title>
<path fill="none" stroke="black" d="M444.5,-219C444.5,-138.58 274.84,-255.74 259.59,-193.08"/>
<polygon fill="black" stroke="black" points="263.06,-192.56 258.5,-183 256.1,-193.32 263.06,-192.56"/>
</g>
<!-- f12 -->
<g id="node12" class="node">
<title>f12</title>
<polygon fill="none" stroke="black" points="443.5,-146.5 443.5,-182.5 517.5,-182.5 517.5,-146.5 443.5,-146.5"/>
<text text-anchor="middle" x="480.5" y="-160.8" font-family="Times New Roman,serif" font-size="14.00">T2 (11 f8)</text>
</g>
<!-- f2&#45;&gt;f12 -->
<g id="edge9" class="edge">
<title>f2:u&#45;&gt;f12:i</title>
<path fill="none" stroke="black" d="M444.5,-219C444.5,-208.9 448.86,-199.23 454.54,-190.92"/>
<polygon fill="black" stroke="black" points="457.48,-192.84 460.81,-182.78 451.94,-188.56 457.48,-192.84"/>
</g>
<!-- i13 -->
<g id="node13" class="node">
<title>i13</title>
<polygon fill="none" stroke="black" points="535.5,-146.5 535.5,-182.5 589.5,-182.5 589.5,-146.5 535.5,-146.5"/>
<text text-anchor="middle" x="562.5" y="-160.8" font-family="Times New Roman,serif" font-size="14.00">E (12)</text>
</g>
<!-- f2&#45;&gt;i13 -->
<g id="edge10" class="edge">
<title>f2:u&#45;&gt;i13:i</title>
<path fill="none" stroke="black" d="M444.5,-219C444.5,-178.9 489.2,-199.49 526.98,-186.58"/>
<polygon fill="black" stroke="black" points="528.61,-189.69 536.41,-182.51 525.84,-183.26 528.61,-189.69"/>
</g>
<!-- i8 -->
<g id="node9" class="node">
<title>i8</title>
<polygon fill="none" stroke="black" points="31.5,-73.5 31.5,-109.5 85.5,-109.5 85.5,-73.5 31.5,-73.5"/>
<text text-anchor="middle" x="58.5" y="-87.8" font-family="Times New Roman,serif" font-size="14.00">T1 (1)</text>
</g>
<!-- f3&#45;&gt;i8 -->
<g id="edge3" class="edge">
<title>f3:u&#45;&gt;i8:i</title>
<path fill="none" stroke="black" d="M94.5,-146C94.5,-135.9 90.14,-126.23 84.46,-117.92"/>
<polygon fill="black" stroke="black" points="87.06,-115.56 78.19,-109.78 81.52,-119.84 87.06,-115.56"/>
</g>
<!-- i9 -->
<g id="node10" class="node">
<title>i9</title>
<polygon fill="none" stroke="black" points="103.5,-73.5 103.5,-109.5 157.5,-109.5 157.5,-73.5 103.5,-73.5"/>
<text text-anchor="middle" x="130.5" y="-87.8" font-family="Times New Roman,serif" font-size="14.00">A (4)</text>
</g>
<!-- f3&#45;&gt;i9 -->
<g id="edge4" class="edge">
<title>f3:u&#45;&gt;i9:i</title>
<path fill="none" stroke="black" d="M94.5,-146C94.5,-135.9 98.86,-126.23 104.54,-117.92"/>
<polygon fill="black" stroke="black" points="107.48,-119.84 110.81,-109.78 101.94,-115.56 107.48,-119.84"/>
</g>
<!-- i10 -->
<g id="node5" class="node">
<title>i10</title>
<polygon fill="none" stroke="black" points="251.5,-73.5 251.5,-109.5 305.5,-109.5 305.5,-73.5 251.5,-73.5"/>
<text text-anchor="middle" x="278.5" y="-87.8" font-family="Times New Roman,serif" font-size="14.00">B (15)</text>
</g>
<!-- f4&#45;&gt;i10 -->
<g id="edge6" class="edge">
<title>f4:u&#45;&gt;i10:i</title>
<path fill="none" stroke="black" d="M317.5,-146C317.5,-135.7 312.84,-126.01 306.74,-117.74"/>
<polygon fill="black" stroke="black" points="309.36,-115.42 300.28,-109.97 303.98,-119.9 309.36,-115.42"/>
</g>
<!-- f5 -->
<g id="node6" class="node">
<title>f5</title>
<polygon fill="none" stroke="black" points="323.5,-73.5 323.5,-109.5 391.5,-109.5 391.5,-73.5 323.5,-73.5"/>
<text text-anchor="middle" x="357.5" y="-87.8" font-family="Times New Roman,serif" font-size="14.00">C (16 f5)</text>
</g>
<!-- f4&#45;&gt;f5 -->
<g id="edge7" class="edge">
<title>f4:u&#45;&gt;f5:i</title>
<path fill="none" stroke="black" d="M317.5,-146C317.5,-135.61 322.28,-125.89 328.54,-117.62"/>
<polygon fill="black" stroke="black" points="331.33,-119.74 335.16,-109.86 326.01,-115.2 331.33,-119.74"/>
</g>
<!-- i11 -->
<g id="node11" class="node">
<title>i11</title>
<polygon fill="none" stroke="black" points="330.5,-0.5 330.5,-36.5 384.5,-36.5 384.5,-0.5 330.5,-0.5"/>
<text text-anchor="middle" x="357.5" y="-14.8" font-family="Times New Roman,serif" font-size="14.00">D (17)</text>
</g>
<!-- f5&#45;&gt;i11 -->
<g id="edge8" class="edge">
<title>f5:i&#45;&gt;i11:i</title>
<path fill="none" stroke="black" d="M357.5,-73.46C357.5,-65.38 357.5,-55.68 357.5,-46.68"/>
<polygon fill="black" stroke="black" points="361,-46.59 357.5,-36.59 354,-46.59 361,-46.59"/>
</g>
<!-- f7 -->
<g id="node8" class="node">
<title>f7</title>
<polygon fill="none" stroke="black" points="643.5,-146.5 643.5,-182.5 853.5,-182.5 853.5,-146.5 643.5,-146.5"/>
<text text-anchor="middle" x="686.5" y="-160.8" font-family="Times New Roman,serif" font-size="14.00">P3&#45;Dad (19)</text>
<polyline fill="none" stroke="black" points="729.5,-146.5 729.5,-182.5 "/>
<text text-anchor="middle" x="745.5" y="-160.8" font-family="Times New Roman,serif" font-size="14.00">(7)</text>
<polyline fill="none" stroke="black" points="761.5,-146.5 761.5,-182.5 "/>
<text text-anchor="middle" x="807.5" y="-160.8" font-family="Times New Roman,serif" font-size="14.00">P3&#45;Mom (20)</text>
</g>
<!-- f6&#45;&gt;f7 -->
<g id="edge12" class="edge">
<title>f6:u&#45;&gt;f7:h</title>
<path fill="none" stroke="black" d="M686.5,-219C686.5,-207 686.5,-201.75 686.5,-193.13"/>
<polygon fill="black" stroke="black" points="690,-193 686.5,-183 683,-193 690,-193"/>
</g>
<!-- i14 -->
<g id="node14" class="node">
<title>i14</title>
<polygon fill="none" stroke="black" points="716,-73.5 716,-109.5 775,-109.5 775,-73.5 716,-73.5"/>
<text text-anchor="middle" x="745.5" y="-87.8" font-family="Times New Roman,serif" font-size="14.00">T3 (21)</text>
</g>
<!-- f7&#45;&gt;i14 -->
<g id="edge13" class="edge">
<title>f7:u&#45;&gt;i14:i</title>
<path fill="none" stroke="black" d="M745.5,-146C745.5,-137.48 745.5,-128.22 745.5,-119.79"/>
<polygon fill="black" stroke="black" points="749,-119.67 745.5,-109.67 742,-119.67 749,-119.67"/>
</g>
<!-- i15 -->
<g id="node15" class="node">
<title>i15</title>
<polygon fill="none" stroke="black" points="453.5,-73.5 453.5,-109.5 507.5,-109.5 507.5,-73.5 453.5,-73.5"/>
<text text-anchor="middle" x="480.5" y="-87.8" font-family="Times New Roman,serif" font-size="14.00">F (22)</text>
</g>
<!-- f12&#45;&gt;i15 -->
<g id="edge14" class="edge">
<title>f12:i&#45;&gt;i15:i</title>
<path fill="none" stroke="black" d="M480.5,-146.46C480.5,-138.38 480.5,-128.68 480.5,-119.68"/>
<polygon fill="black" stroke="black" points="484,-119.59 480.5,-109.59 477,-119.59 484,-119.59"/>
</g>
</g>
</svg>
